<?xml version="1.0" standalone="no"?>
<!DOCTYPE svg PUBLIC "-//W3C//DTD SVG 20010904//EN"
 "http://www.w3.org/TR/2001/REC-SVG-20010904/DTD/svg10.dtd">
<svg version="1.0" xmlns="http://www.w3.org/2000/svg"
 width="2000.000000pt" height="1500.000000pt" viewBox="0 0 2000.000000 1500.000000"
 preserveAspectRatio="xMidYMid meet">

<g transform="translate(0.000000,1500.000000) scale(0.100000,-0.100000)"
fill="#000000" stroke="none">
<path d="M9458 12471 c-130 -14 -239 -29 -243 -33 -6 -6 93 -969 101 -977 9
-9 503 50 545 64 68 24 118 64 150 120 24 42 29 61 29 121 0 119 -62 210 -167
245 l-35 11 35 37 c72 75 94 173 62 272 -32 95 -130 172 -215 168 -14 -1 -132
-13 -262 -28z m301 -108 c46 -35 64 -70 69 -132 6 -76 -22 -130 -82 -160 -36
-18 -262 -51 -349 -51 -22 0 -23 5 -39 162 -10 89 -15 164 -13 166 9 9 310 41
349 37 22 -2 51 -12 65 -22z m80 -430 c59 -44 90 -119 77 -189 -9 -46 -68
-111 -115 -124 -47 -14 -364 -49 -373 -41 -8 7 -43 330 -36 336 9 9 333 43
377 40 24 -1 55 -12 70 -22z"/>
<path d="M12270 11891 c-127 -219 -450 -785 -450 -790 0 -7 100 -65 104 -59 1
1 51 89 111 193 59 105 109 191 111 193 4 6 466 -263 471 -274 2 -6 -44 -94
-102 -195 -59 -101 -107 -187 -108 -191 -1 -4 21 -21 49 -37 l52 -30 247 430
c136 237 246 431 244 433 -2 2 -26 16 -52 31 -40 23 -51 26 -58 14 -5 -8 -52
-89 -104 -181 -53 -92 -99 -169 -103 -172 -4 -2 -104 52 -222 121 -118 68
-225 130 -237 136 -21 12 -20 15 83 194 57 100 104 186 104 190 0 5 -23 20
-50 35 l-49 28 -41 -69z"/>
<path d="M6908 11473 l-46 -36 76 -96 c42 -53 181 -228 310 -388 l234 -293 27
20 c14 11 36 27 48 37 l22 18 -295 370 c-162 204 -303 378 -312 387 -16 16
-20 15 -64 -19z"/>
<path d="M9805 10419 c-478 -32 -946 -182 -1346 -431 -370 -230 -717 -578
-948 -950 -534 -857 -581 -1958 -122 -2859 144 -284 308 -507 545 -744 94 -94
216 -205 271 -246 441 -335 906 -525 1450 -595 175 -22 515 -22 690 0 675 86
1242 363 1716 835 242 242 399 456 545 744 218 430 316 842 316 1327 0 475
-97 890 -305 1308 -144 287 -309 515 -546 753 -344 344 -698 565 -1146 714
-369 123 -741 171 -1120 144z"/>
<path d="M14310 9549 c-269 -115 -363 -169 -424 -243 -112 -137 -123 -280 -34
-458 98 -196 298 -262 540 -179 125 43 518 214 518 226 0 7 -9 33 -20 58 l-21
46 -82 -35 c-231 -100 -427 -179 -472 -190 -27 -8 -84 -14 -126 -14 -61 0 -85
5 -128 26 -115 58 -185 232 -141 349 43 115 125 170 457 309 l261 109 -22 51
c-12 28 -29 52 -37 53 -8 0 -129 -48 -269 -108z"/>
<path d="M5383 9572 l-21 -59 333 -300 333 -300 -127 -6 c-69 -4 -243 -7 -386
-7 -143 0 -289 -3 -325 -6 l-66 -7 -21 -57 -21 -58 102 4 c155 6 822 24 901
24 l71 0 19 56 19 57 -26 21 c-14 11 -189 172 -388 356 -199 184 -365 336
-369 338 -4 1 -16 -24 -28 -56z"/>
<path d="M5474 7470 c-37 -15 -64 -59 -64 -106 0 -92 107 -139 179 -78 95 80
1 231 -115 184z"/>
<path d="M14444 7462 c-96 -60 -52 -202 63 -202 134 0 141 200 8 216 -29 4
-49 0 -71 -14z"/>
<path d="M6009 6173 c-134 -124 -310 -287 -391 -361 l-146 -135 20 -51 c11
-28 21 -52 22 -53 2 -3 1060 -29 1064 -27 2 2 -5 27 -16 56 -19 52 -20 53 -68
60 -27 3 -204 7 -394 8 -190 1 -370 5 -402 9 l-56 6 304 275 c168 151 316 286
331 298 l26 24 -17 54 c-9 29 -20 55 -25 58 -4 3 -117 -97 -252 -221z"/>
<path d="M13733 6278 l-20 -53 86 -36 c477 -202 494 -211 567 -291 22 -24 49
-65 59 -91 47 -124 -27 -303 -150 -358 -49 -22 -167 -25 -240 -5 -41 11 -275
105 -508 205 l-48 21 -24 -53 c-13 -28 -20 -55 -17 -59 14 -15 491 -210 561
-230 106 -29 244 -23 323 14 109 51 193 170 224 318 35 167 -46 325 -218 428
-56 33 -541 242 -563 242 -7 0 -21 -24 -32 -52z"/>
<path d="M7336 3893 l-308 -387 33 -28 c19 -16 41 -32 49 -37 12 -7 82 75 323
378 l309 386 -44 37 c-23 21 -46 38 -49 38 -3 0 -144 -174 -313 -387z"/>
<path d="M12325 4235 c-22 -14 -44 -26 -48 -28 -5 -1 39 -85 97 -186 58 -100
106 -186 106 -189 -1 -11 -463 -273 -474 -268 -6 2 -56 83 -111 180 -55 97
-104 176 -110 176 -5 0 -31 -13 -56 -28 l-46 -27 245 -425 c134 -234 246 -427
248 -429 4 -5 81 35 98 50 5 4 -41 94 -102 201 -61 106 -108 196 -104 200 20
19 464 268 471 264 4 -3 57 -91 117 -195 l109 -190 45 26 c25 14 48 28 52 32
8 7 -475 854 -489 858 -4 1 -26 -9 -48 -22z"/>
<path d="M9340 3535 c0 -2 -22 -214 -50 -471 -27 -257 -50 -477 -50 -488 0
-21 9 -23 263 -49 248 -26 265 -27 321 -12 65 17 99 38 144 90 92 104 57 306
-63 371 -36 19 -45 34 -22 34 23 0 97 70 120 114 31 58 31 183 0 242 -27 50
-80 98 -125 113 -18 5 -140 22 -271 36 -252 26 -267 28 -267 20z m312 -131
c87 -10 157 -23 178 -33 41 -21 80 -89 80 -140 -1 -76 -58 -156 -122 -170 -33
-8 -354 22 -366 33 -5 5 10 175 25 284 6 50 -2 49 205 26z m-38 -434 c203 -23
231 -34 265 -104 43 -88 13 -188 -70 -235 l-46 -25 -189 18 c-104 10 -193 22
-197 26 -4 4 0 82 9 173 15 138 20 167 33 167 9 0 96 -9 195 -20z"/>
</g>
</svg>
